<?xml version="1.0" ?><svg height="32" id="icon" viewBox="0 0 32 32" width="32" xmlns="http://www.w3.org/2000/svg"><defs><style>.cls-1{fill:none;}</style></defs><title/><path d="M29.4141,24,12,6.5859a2.0476,2.0476,0,0,0-2.8281,0l-2.586,2.586a2.0021,2.0021,0,0,0,0,2.8281L23.999,29.4141a2.0024,2.0024,0,0,0,2.8281,0l2.587-2.5865a1.9993,1.9993,0,0,0,0-2.8281ZM8,10.5859,10.5859,8l5,5-2.5866,2.5869-5-5Z"/><rect height="2.8284" transform="translate(-10.1421 7.5147) rotate(-45)" width="2.8284" x="2.5858" y="14.5858"/><rect height="2.8284" transform="translate(1.8579 12.4853) rotate(-45)" width="2.8284" x="14.5858" y="2.5858"/><rect height="2.8284" transform="translate(-1.6569 4) rotate(-45)" width="2.8284" x="2.5858" y="2.5858"/><rect class="cls-1" data-name="&lt;Transparent Rectangle&gt;" height="32" id="_Transparent_Rectangle_" width="32"/></svg>