<?xml version="1.0" ?><!DOCTYPE svg  PUBLIC '-//W3C//DTD SVG 1.1//EN'  'http://www.w3.org/Graphics/SVG/1.1/DTD/svg11.dtd'><svg enable-background="new 0 0 249.469 217.5" height="217.5" id="Layer_1" overflow="visible" version="1.1" viewBox="0 0 249.469 217.5" width="249.469" xml:space="preserve" xmlns="http://www.w3.org/2000/svg" xmlns:xlink="http://www.w3.org/1999/xlink"><path d="M124.376,216.075c22.698-78,75.106-27.716,75.106-27.716s11.438-69.397,49.986-20.846  c0.004-0.003-16.396-99.229-59.832-99.229c-28.563,0-27.908,76.063-64.883,49.007v-0.484c-0.111,0.085-0.22,0.158-0.33,0.236  c-0.111-0.082-0.221-0.159-0.33-0.246l0.001,0.483C86.932,143.713,83.75,67.18,60.703,67.18C14.074,67.18,0,165.377,0,165.377  c38.903-47.888,49.827,21.699,49.827,21.699S100.074,133.5,124.376,216.075l0.393,1.215c0,0-0.33-0.041-0.22-0.496  c0.175,0.746,0.021,0.059,0.163,0.707l0.39-1.574"/><polyline points="81.123,53.005 81.123,0 106.224,31.5 81.123,55 "/><polyline points="168.165,53.005 168.165,0 144.063,31.5 168.165,55 "/><path d="M81.123,31.5v98.038h87.17V31.5H81.123z M96.208,64.575l9.517-14.806l15.341,14.811L96.208,64.575z M129.93,64.58  l15.34-14.811l9.517,14.806L129.93,64.58z"/></svg>